<?xml version="1.0" encoding="utf-8"?>
<!-- Generator: Adobe Illustrator 19.1.0, SVG Export Plug-In . SVG Version: 6.00 Build 0)  -->
<svg version="1.1" id="Capa_1" xmlns="http://www.w3.org/2000/svg" xmlns:xlink="http://www.w3.org/1999/xlink" x="0px" y="0px"
	 viewBox="-49 141 512 512" style="enable-background:new -49 141 512 512;" xml:space="preserve">
<style type="text/css">
	.st0{fill:#E0E0E1;}
	.st1{fill:#FFCC00;}
</style>
<g id="XMLID_1_">
	<g>
		<path class="st0" d="M461.2,336.4c4.3,13.4,0.8,27.8-9.3,37.6l-89.7,87.5c-3.8,3.7-5.6,9.1-4.7,14.3l21.2,123.5
			c1.9,10.9-1,21.4-8,29.8c-7.1,8.4-17.3,13.2-28.2,13.2c-5.9,0-11.7-1.4-17.1-4.3l-110.9-58.3c-2.3-1.2-4.9-1.8-7.6-1.8l0-426.2
			c14.1,0,26.7,7.9,32.9,20.5l55.4,112.3c2.4,4.8,6.9,8.1,12.2,8.9l124,18C445.5,313.4,456.8,323,461.2,336.4z"/>
		<path class="st1" d="M207,151.7l0,426.2c-2.6,0-5.2,0.6-7.5,1.8L88.6,638c-15.3,8-34.3,4.1-45.3-8.9c-7-8.3-9.9-18.9-8-29.8
			l21.2-123.5c0.9-5.3-0.9-10.6-4.7-14.3L-37.9,374c-10.1-9.8-13.6-24.2-9.3-37.6c4.4-13.4,15.7-23,29.6-25l124-18
			c5.3-0.8,9.8-4.1,12.2-8.9l55.4-112.3C180.3,159.6,192.9,151.7,207,151.7z"/>
	</g>
	<g>
	</g>
</g>
</svg>
