<?xml version="1.0" encoding="iso-8859-1"?>
<!-- Generator: Adobe Illustrator 19.0.0, SVG Export Plug-In . SVG Version: 6.00 Build 0)  -->
<svg xmlns="http://www.w3.org/2000/svg" xmlns:xlink="http://www.w3.org/1999/xlink" version="1.1" id="Capa_1" x="0px" y="0px" viewBox="0 0 489.9 489.9" style="enable-background:new 0 0 489.9 489.9;" xml:space="preserve" width="512px" height="512px">
<g>
	<g>
		<g>
			<path d="M37.9,413.25h36.3h341.5H452c21,0,37.9-17,37.9-37.9v-23.3h-30.6h-1.7v-241c0-19-15.4-34.4-34.4-34.4H66.6     c-19,0-34.4,15.4-34.4,34.4v241h-1.6H0v23.3C0,396.25,17,413.25,37.9,413.25z M79.1,123.55h331.8v228.5h-120v2.3     c0,7.2-5.8,13-13,13H212c-7.2,0-13-5.8-13-13v-2.3H79.1V123.55z M364.1,300.85v-122.3c0-16.4-13.3-29.7-29.7-29.7H155.6     c-16.4,0-29.7,13.3-29.7,29.7v122.2c0,16.4,13.3,29.7,29.7,29.7h178.9C350.8,330.45,364.1,317.15,364.1,300.85z M329.1,304.45     c-1.8,0-3.6-0.7-5-2l-58.1-54.7l-16.2,13.8c-1.4,1.2-3,1.7-4.7,1.7c-1.7,0-3.4-0.6-4.7-1.7l-16.2-13.8l-58.2,54.7     c-1.4,1.3-3.2,2-5,2c-1.9,0-3.9-0.8-5.3-2.3c-2.8-2.9-2.6-7.6,0.3-10.3l56.9-53.6l-56.6-48c-3.1-2.6-3.5-7.2-0.8-10.3     c2.6-3.1,7.2-3.4,10.3-0.8l79.3,67.3l79.3-67.3c3.1-2.6,7.7-2.2,10.3,0.8c2.6,3.1,2.2,7.7-0.8,10.3l-56.6,48l56.9,53.6     c2.9,2.8,3.1,7.4,0.3,10.3C332.9,303.65,331,304.45,329.1,304.45z" fill="#25262f"/>
		</g>
	</g>
</g>
<g>
</g>
<g>
</g>
<g>
</g>
<g>
</g>
<g>
</g>
<g>
</g>
<g>
</g>
<g>
</g>
<g>
</g>
<g>
</g>
<g>
</g>
<g>
</g>
<g>
</g>
<g>
</g>
<g>
</g>
</svg>
